<?xml version="1.0" encoding="UTF-8" standalone="no"?>
<!-- Created with Inkscape (http://www.inkscape.org/) -->

<svg
   width="72.5mm"
   height="150mm"
   viewBox="0 0 72.499999 150"
   version="1.1"
   id="svg1"
   xml:space="preserve"
   xmlns:xlink="http://www.w3.org/1999/xlink"
   xmlns="http://www.w3.org/2000/svg"
   xmlns:svg="http://www.w3.org/2000/svg"><defs
     id="defs1"><linearGradient
       id="linearGradient6"><stop
         style="stop-color:#ca5f22;stop-opacity:1"
         offset="0.49999952"
         id="stop5" /><stop
         style="stop-color:#99471f;stop-opacity:1;"
         offset="1"
         id="stop6" /></linearGradient><linearGradient
       id="linearGradient4"><stop
         style="stop-color:#dd762c;stop-opacity:1"
         offset="0"
         id="stop1" /><stop
         style="stop-color:#dd762c;stop-opacity:0;"
         offset="0.17643726"
         id="stop2" /><stop
         style="stop-color:#9d4219;stop-opacity:0;"
         offset="0.75"
         id="stop3" /><stop
         style="stop-color:#9d4219;stop-opacity:1;"
         offset="1"
         id="stop4" /></linearGradient><linearGradient
       id="linearGradient31"><stop
         style="stop-color:#ffffff;stop-opacity:0.02;"
         offset="0"
         id="stop31" /><stop
         style="stop-color:#ffffff;stop-opacity:0.1;"
         offset="1"
         id="stop32" /></linearGradient><linearGradient
       id="linearGradient25"><stop
         style="stop-color:#b697ff;stop-opacity:1;"
         offset="0"
         id="stop26" /><stop
         style="stop-color:#3600ae;stop-opacity:1;"
         offset="0.56404012"
         id="stop28" /><stop
         style="stop-color:#000000;stop-opacity:0;"
         offset="1"
         id="stop27" /></linearGradient><linearGradient
       id="linearGradient24"><stop
         style="stop-color:#39394e;stop-opacity:1;"
         offset="0"
         id="stop24" /><stop
         style="stop-color:#1e1e21;stop-opacity:1;"
         offset="1"
         id="stop25" /></linearGradient><clipPath
       clipPathUnits="userSpaceOnUse"
       id="clipPath1"><rect
         style="fill:#9320d4;stroke-width:2.90343;stroke-linecap:round;stroke-linejoin:round;stroke-opacity:0.542522;paint-order:stroke fill markers"
         id="rect2"
         width="207.90259"
         height="430.15308"
         x="66.161987"
         y="-144.36761" /></clipPath><linearGradient
       xlink:href="#linearGradient6"
       id="linearGradient10"
       x1="-10.466562"
       y1="42.48769"
       x2="-10.055421"
       y2="42.48769"
       gradientUnits="userSpaceOnUse"
       gradientTransform="matrix(1,0,0,1.0187233,10.528318,-10.430529)" /><radialGradient
       xlink:href="#linearGradient24"
       id="radialGradient25"
       cx="43.681053"
       cy="7.4308386"
       fx="43.681053"
       fy="7.4308386"
       r="0.92431802"
       gradientUnits="userSpaceOnUse"
       gradientTransform="translate(1.3383789e-6)" /><radialGradient
       xlink:href="#linearGradient25"
       id="radialGradient27"
       cx="48.734295"
       cy="7.8165774"
       fx="48.734295"
       fy="7.8165774"
       r="0.68189663"
       gradientUnits="userSpaceOnUse"
       gradientTransform="matrix(0.99999932,-3.3487284e-7,-2.1771224e-6,1.3555106,-5.200404,-14.350692)" /><radialGradient
       xlink:href="#linearGradient25"
       id="radialGradient27-6"
       cx="48.734295"
       cy="7.8165774"
       fx="48.734295"
       fy="7.8165774"
       r="0.68189663"
       gradientUnits="userSpaceOnUse"
       gradientTransform="matrix(0.99999932,-3.3487284e-7,-2.1771224e-6,1.3555106,-93.631878,-14.350692)" /><linearGradient
       xlink:href="#linearGradient31"
       id="linearGradient32"
       x1="36.25"
       y1="0.97257996"
       x2="36.25"
       y2="1.5374033"
       gradientUnits="userSpaceOnUse"
       gradientTransform="translate(0.016294,0.00403118)" /><clipPath
       clipPathUnits="userSpaceOnUse"
       id="clipPath34"><rect
         style="display:inline;fill:#716a7b;fill-opacity:1;stroke:none;stroke-width:21.753;stroke-linecap:round;stroke-linejoin:round;stroke-dasharray:none;stroke-opacity:1;paint-order:stroke fill markers"
         id="rect35"
         width="71.606865"
         height="150"
         x="0.44656754"
         y="1.4210855e-14"
         ry="12.865973" /></clipPath><clipPath
       clipPathUnits="userSpaceOnUse"
       id="clipPath36"><rect
         style="fill:#050505;fill-opacity:1;stroke:none;stroke-width:37.1245;stroke-linecap:round;stroke-linejoin:round;stroke-dasharray:none;stroke-opacity:0.465686;paint-order:stroke fill markers"
         id="rect37"
         width="208.40112"
         height="429.8645"
         x="-371.52576"
         y="-240.9048" /></clipPath><filter
       style="color-interpolation-filters:sRGB"
       id="filter39"
       x="-0.0029859001"
       y="-0.0014149089"
       width="1.0059718"
       height="1.0028298"><feGaussianBlur
         stdDeviation="0.087842083"
         id="feGaussianBlur39" /></filter><linearGradient
       xlink:href="#linearGradient4"
       id="linearGradient50"
       x1="2.4391277"
       y1="30.723913"
       x2="2.4391277"
       y2="37.664433"
       gradientUnits="userSpaceOnUse" /><linearGradient
       xlink:href="#linearGradient6"
       id="linearGradient52"
       gradientUnits="userSpaceOnUse"
       gradientTransform="matrix(1,0,0,1.0187233,10.528318,1.649144)"
       x1="-10.466562"
       y1="42.48769"
       x2="-10.055421"
       y2="42.48769" /><linearGradient
       xlink:href="#linearGradient4"
       id="linearGradient53"
       gradientUnits="userSpaceOnUse"
       x1="2.4391277"
       y1="30.723913"
       x2="2.4391277"
       y2="41.93084"
       gradientTransform="translate(-1.5000003e-8,12.079673)" /><linearGradient
       xlink:href="#linearGradient6"
       id="linearGradient55"
       gradientUnits="userSpaceOnUse"
       gradientTransform="matrix(1,0,0,1.0187233,10.528318,15.879149)"
       x1="-10.466562"
       y1="42.48769"
       x2="-10.055421"
       y2="42.48769" /><linearGradient
       xlink:href="#linearGradient4"
       id="linearGradient56"
       gradientUnits="userSpaceOnUse"
       gradientTransform="translate(4.85e-7,26.309678)"
       x1="2.4391277"
       y1="30.723913"
       x2="2.4391277"
       y2="41.93084" /><linearGradient
       xlink:href="#linearGradient6"
       id="linearGradient57"
       gradientUnits="userSpaceOnUse"
       gradientTransform="matrix(-1,0,0,1.0187233,61.971682,5.4573645)"
       x1="-10.466562"
       y1="42.48769"
       x2="-10.055421"
       y2="42.48769" /><linearGradient
       xlink:href="#linearGradient4"
       id="linearGradient58"
       gradientUnits="userSpaceOnUse"
       gradientTransform="matrix(-1,0,0,1,72.5,15.887894)"
       x1="2.4391277"
       y1="30.723913"
       x2="2.4391277"
       y2="48.501129" /><filter
       style="color-interpolation-filters:sRGB"
       id="filter6"
       x="-0.00074950436"
       y="-0.00035305104"
       width="1.001499"
       height="1.0007061"><feGaussianBlur
         stdDeviation="0.021800788"
         id="feGaussianBlur6" /></filter></defs><g
     id="layer2"
     style="display:inline"><rect
       style="fill:#e7944b;fill-opacity:1;stroke-width:0.2;stroke-linecap:round;stroke-linejoin:round;stroke-opacity:0.542522;paint-order:stroke fill markers"
       id="rect6"
       width="7.6419992"
       height="6.9724154"
       x="-6.8847655e-10"
       y="30.692017"
       ry="0.14023615" /><rect
       style="fill:url(#linearGradient10);fill-opacity:1;stroke-width:0.190988;stroke-linecap:round;stroke-linejoin:round;stroke-opacity:0.542522;paint-order:stroke fill markers"
       id="rect6-2"
       width="7.230288"
       height="6.9405189"
       x="0.061756074"
       y="30.723913"
       ry="0.087142207" /><rect
       style="display:inline;fill:url(#linearGradient50);fill-opacity:1;stroke-width:0.190988;stroke-linecap:round;stroke-linejoin:round;stroke-opacity:0.542522;paint-order:stroke fill markers"
       id="rect6-2-1"
       width="7.230288"
       height="6.9405189"
       x="0.061756074"
       y="30.723913"
       ry="0.087142207" /><path
       id="rect6-9"
       style="fill:#e7944b;fill-opacity:1;stroke-width:0.2;stroke-linecap:round;stroke-linejoin:round;stroke-opacity:0.542522;paint-order:stroke fill markers"
       d="M 0.14023615,42.77169 H 7.5017631 c 0.077691,0 0.1402361,0.06255 0.1402361,0.140237 v 10.958349 c 0,0.07769 -0.062545,0.140236 -0.1402361,0.140236 H 0.14023615 C 0.06254532,54.010512 0,53.947966 0,53.870276 V 42.911927 C 0,42.834236 0.06254532,42.77169 0.14023615,42.77169 Z" /><path
       id="rect6-2-2"
       style="fill:url(#linearGradient52);stroke-width:0.190988;stroke-linecap:round;stroke-linejoin:round;stroke-opacity:0.542522;paint-order:stroke fill markers"
       d="M 0.14889828,42.803585 H 7.2049019 c 0.048277,0 0.087142,0.03887 0.087142,0.08714 v 11.032641 c 0,0.04828 -0.038865,0.08714 -0.087142,0.08714 H 0.14889828 c -0.0482768,0 -0.08714221,-0.03887 -0.08714221,-0.08714 V 42.890725 c 0,-0.04828 0.03886543,-0.08714 0.08714221,-0.08714 z" /><path
       id="rect6-2-1-4"
       style="display:inline;fill:url(#linearGradient53);stroke-width:0.190988;stroke-linecap:round;stroke-linejoin:round;stroke-opacity:0.542522;paint-order:stroke fill markers"
       d="M 0.14889798,42.803585 H 7.204902 c 0.04828,0 0.08714,0.03887 0.08714,0.08714 v 11.032641 c 0,0.04828 -0.03887,0.08714 -0.08714,0.08714 H 0.14889798 c -0.04828,0 -0.08714,-0.03887 -0.08714,-0.08714 V 42.890725 c 0,-0.04828 0.03887,-0.08714 0.08714,-0.08714 z" /><path
       id="rect6-9-9"
       style="fill:#e7944b;fill-opacity:1;stroke-width:0.2;stroke-linecap:round;stroke-linejoin:round;stroke-opacity:0.542522;paint-order:stroke fill markers"
       d="m 72.359764,46.57991 h -7.361527 c -0.07769,0 -0.140236,0.06255 -0.140236,0.140237 V 64.24347 c 0,0.07769 0.06255,0.140236 0.140236,0.140236 h 7.361527 c 0.07769,0 0.140236,-0.06255 0.140236,-0.140236 V 46.720147 c 0,-0.07769 -0.06255,-0.140237 -0.140236,-0.140237 z" /><path
       id="rect6-2-2-6"
       style="fill:url(#linearGradient57);stroke-width:0.190988;stroke-linecap:round;stroke-linejoin:round;stroke-opacity:0.542522;paint-order:stroke fill markers"
       d="m 72.351102,46.611805 h -7.056004 c -0.04828,0 -0.08714,0.03887 -0.08714,0.08714 V 64.29656 c 0,0.04828 0.03887,0.08714 0.08714,0.08714 h 7.056004 c 0.04828,0 0.08714,-0.03887 0.08714,-0.08714 V 46.698945 c 0,-0.04828 -0.03887,-0.08714 -0.08714,-0.08714 z" /><path
       id="rect6-2-1-4-9"
       style="display:inline;fill:url(#linearGradient58);stroke-width:0.190988;stroke-linecap:round;stroke-linejoin:round;stroke-opacity:0.542522;paint-order:stroke fill markers"
       d="m 72.351102,46.611805 h -7.056004 c -0.04828,0 -0.08714,0.03887 -0.08714,0.08714 V 64.29656 c 0,0.04828 0.03887,0.08714 0.08714,0.08714 h 7.056004 c 0.04828,0 0.08714,-0.03887 0.08714,-0.08714 V 46.698945 c 0,-0.04828 -0.03887,-0.08714 -0.08714,-0.08714 z" /><path
       id="rect6-9-2"
       style="fill:#e7944b;fill-opacity:1;stroke-width:0.2;stroke-linecap:round;stroke-linejoin:round;stroke-opacity:0.542522;paint-order:stroke fill markers"
       d="M 0.14023615,57.001695 H 7.5017631 c 0.077691,0 0.1402361,0.06255 0.1402361,0.140237 v 10.958349 c 0,0.07769 -0.062545,0.140236 -0.1402361,0.140236 H 0.14023615 C 0.06254532,68.240517 0,68.177971 0,68.100281 V 57.141932 c 0,-0.07769 0.06254532,-0.140237 0.14023615,-0.140237 z" /><path
       id="rect6-2-2-5"
       style="fill:url(#linearGradient55);stroke-width:0.190988;stroke-linecap:round;stroke-linejoin:round;stroke-opacity:0.542522;paint-order:stroke fill markers"
       d="M 0.14889828,57.03359 H 7.2049019 c 0.048277,0 0.087142,0.03887 0.087142,0.08714 v 11.032641 c 0,0.04828 -0.038865,0.08714 -0.087142,0.08714 H 0.14889828 c -0.0482768,0 -0.08714221,-0.03887 -0.08714221,-0.08714 V 57.12073 c 0,-0.04828 0.03886543,-0.08714 0.08714221,-0.08714 z" /><path
       id="rect6-2-1-4-2"
       style="display:inline;fill:url(#linearGradient56);stroke-width:0.190988;stroke-linecap:round;stroke-linejoin:round;stroke-opacity:0.542522;paint-order:stroke fill markers"
       d="M 0.14889849,57.03359 H 7.2049015 c 0.04828,0 0.08714,0.03887 0.08714,0.08714 v 11.032641 c 0,0.04828 -0.03887,0.08714 -0.08714,0.08714 H 0.14889849 c -0.04828,0 -0.08714,-0.03887 -0.08714,-0.08714 V 57.12073 c 0,-0.04828 0.03886,-0.08714 0.08714,-0.08714 z" /></g><g
     id="layer9"
     style="display:inline;fill:#6d240c;fill-opacity:1"><rect
       style="display:inline;fill:#be511d;fill-opacity:1;stroke:none;stroke-width:21.753;stroke-linecap:round;stroke-linejoin:round;stroke-dasharray:none;stroke-opacity:1;paint-order:stroke fill markers"
       id="rect32"
       width="71.606865"
       height="150"
       x="0.44656754"
       y="1.4210855e-14"
       ry="12.865973" /></g><g
     id="layer7"
     style="display:inline"><g
       id="g34"
       clip-path="url(#clipPath34)"
       style="fill:#b3634a;fill-opacity:1"><path
         id="rect32-7"
         style="display:inline;mix-blend-mode:normal;fill:#e8924f;fill-opacity:1;stroke:none;stroke-width:21.753;stroke-linecap:round;stroke-linejoin:round;stroke-dasharray:none;stroke-opacity:1;paint-order:stroke fill markers;filter:url(#filter39)"
         d="m 13.312381,0.50015231 c -6.8593976,0 -12.3651366,5.50573999 -12.3651366,12.36513969 V 137.13471 c 0,6.85939 5.505739,12.36514 12.3651366,12.36514 h 45.875234 c 6.8594,0 12.36514,-5.50575 12.36514,-12.36514 V 12.865292 c 0,-6.8593997 -5.50574,-12.36513969 -12.36514,-12.36513969 z" /><path
         id="rect32-4"
         style="display:inline;mix-blend-mode:normal;fill:#a53f13;fill-opacity:1;stroke:none;stroke-width:21.753;stroke-linecap:round;stroke-linejoin:round;stroke-dasharray:none;stroke-opacity:1;paint-order:stroke fill markers;filter:url(#filter6)"
         d="m 13.312383,0.90038112 c -6.6447174,0 -11.9667114,5.32043998 -11.9667114,11.96515988 V 137.13495 c 0,6.64471 5.321994,11.96466 11.9667114,11.96466 h 45.875234 c 6.64472,0 11.96671,-5.31995 11.96671,-11.96466 V 12.865541 c 0,-6.6447199 -5.32199,-11.96515988 -11.96671,-11.96515988 z" /></g></g><g
     id="layer8"
     style="display:inline"><path
       id="rect34"
       style="fill:#b34c1b;fill-opacity:0.658824;stroke:none;stroke-width:13.7539;stroke-linecap:round;stroke-linejoin:round;stroke-dasharray:none;stroke-opacity:0.465686;paint-order:stroke fill markers"
       d="m 0.44648437,133.19807 v 1.4149 H 72.053483 v -1.4149 z" /><path
       id="rect34-4"
       style="display:inline;fill:#b34c1b;fill-opacity:0.658358;stroke:none;stroke-width:13.7539;stroke-linecap:round;stroke-linejoin:round;stroke-dasharray:none;stroke-opacity:0.465686;paint-order:stroke fill markers"
       d="m 0.44648437,16.80193 v -1.4149 H 72.053483 v 1.4149 z" /></g><g
     id="layer6"
     style="display:inline"><path
       id="rect32-73"
       style="display:inline;fill:#000000;fill-opacity:1;stroke:none;stroke-width:21.753;stroke-linecap:round;stroke-linejoin:round;stroke-dasharray:none;stroke-opacity:1;paint-order:stroke fill markers"
       d="m 13.312378,0.97661114 c -6.603655,0 -11.888676,5.28502136 -11.888676,11.88868086 V 137.13471 c 0,6.60365 5.285021,11.88868 11.888676,11.88868 h 45.87524 c 6.60366,0 11.88868,-5.28503 11.88868,-11.88868 V 12.865292 c 0,-6.6036595 -5.28502,-11.88868086 -11.88868,-11.88868086 z" /><path
       id="path31"
       style="fill:url(#linearGradient32);stroke:none;stroke-width:1.784;stroke-linecap:round;stroke-linejoin:round;stroke-dasharray:none;stroke-opacity:1;paint-order:stroke fill markers"
       d="m 21.965859,0.97668457 c 0.553012,0 1.452468,0.56482343 1.963187,0.56482343 h 24.641907 c 0.510719,0 1.410176,-0.56482343 1.963188,-0.56482343 z" /></g><g
     id="layer4"
     style="display:inline"><path
       id="rect32-2"
       style="display:inline;fill:#333333;fill-opacity:1;stroke:none;stroke-width:21.753;stroke-linecap:round;stroke-linejoin:round;stroke-dasharray:none;stroke-opacity:1;paint-order:stroke fill markers"
       d="m 13.31264,2.4648889 c -5.8047691,0 -10.4003981,4.595623 -10.4003981,10.4004001 V 137.13471 c 0,5.80477 4.595629,10.4004 10.4003981,10.4004 h 45.87472 c 5.80478,0 10.400398,-4.59563 10.400398,-10.4004 V 12.865289 c 0,-5.8047771 -4.595618,-10.4004001 -10.400398,-10.4004001 z m 15.506031,2.338359 h 14.862142 c 1.66928,0 3.013252,1.343978 3.013252,3.013252 0,1.6692751 -1.343972,3.0132541 -3.013252,3.0132541 H 28.818671 c -1.66927,0 -3.012736,-1.343979 -3.012736,-3.0132541 0,-1.669274 1.343466,-3.013252 3.012736,-3.013252 z" /></g><g
     id="layer5"
     style="display:inline"><path
       id="path21"
       style="fill:#050505;fill-opacity:1;stroke:none;stroke-width:0.184059;stroke-linecap:round;stroke-linejoin:round;stroke-opacity:1;paint-order:stroke fill markers"
       d="m 43.681055,5.0436198 a 2.7730749,2.7730756 0 0 0 -2.772958,2.7729573 2.7730749,2.7730756 0 0 0 2.772958,2.7729579 2.7730749,2.7730756 0 0 0 2.772957,-2.7729579 2.7730749,2.7730756 0 0 0 -2.772957,-2.7729573 z m 0,1.0407633 a 1.7323073,1.7323078 0 0 1 1.732194,1.732194 1.7323073,1.7323078 0 0 1 -1.732194,1.7321941 1.7323073,1.7323078 0 0 1 -1.732194,-1.7321941 1.7323073,1.7323078 0 0 1 1.732194,-1.732194 z" /><path
       id="path21-0"
       style="fill:#050505;fill-opacity:1;stroke-linecap:round;stroke-linejoin:round;paint-order:stroke fill markers"
       d="m -28.818913,5.0436198 a 2.7730749,2.7730756 0 0 1 2.772958,2.7729573 2.7730749,2.7730756 0 0 1 -2.772958,2.7729579 h -7.292578 a 2.7730749,2.7730756 0 0 1 -2.772957,-2.7729579 2.7730749,2.7730756 0 0 1 2.772957,-2.7729573 z m 5.17e-4,0.8919352 h -7.293095 c -1.049389,4.46e-5 -1.880461,0.8316326 -1.880505,1.8810221 4.4e-5,1.0493897 0.831116,1.8804608 1.880505,1.8805054 h 7.293095 c 1.049389,-4.42e-5 1.880977,-0.8311154 1.881022,-1.8805054 -4.5e-5,-1.0493897 -0.831633,-1.8809779 -1.881022,-1.8810221 z"
       transform="scale(-1,1)" /><circle
       style="fill:#050505;fill-opacity:1;stroke:none;stroke-width:0.241269;stroke-linecap:round;stroke-linejoin:round;stroke-opacity:1;paint-order:stroke fill markers"
       id="path22"
       cx="43.681053"
       cy="7.8165774"
       r="1.5452632" /><circle
       style="fill:url(#radialGradient25);fill-opacity:1;stroke:none;stroke-width:0.2;stroke-linecap:round;stroke-linejoin:round;stroke-opacity:1;paint-order:stroke fill markers"
       id="path23"
       cx="43.681053"
       cy="7.8165774"
       r="0.92431802" /><circle
       style="fill:#000000;fill-opacity:1;stroke:none;stroke-width:0.2;stroke-linecap:round;stroke-linejoin:round;stroke-opacity:1;paint-order:stroke fill markers"
       id="path24-4"
       cx="44.215736"
       cy="-3.755255"
       r="0.68189663"
       transform="rotate(15)" /><circle
       style="fill:url(#radialGradient27);fill-opacity:0.522059;stroke:none;stroke-width:0.2;stroke-linecap:round;stroke-linejoin:round;stroke-opacity:1;paint-order:stroke fill markers"
       id="path24"
       cx="44.215736"
       cy="-3.755255"
       r="0.68189663"
       transform="rotate(15)" /><circle
       style="fill:url(#radialGradient27-6);fill-opacity:0.522059;stroke:none;stroke-width:0.2;stroke-linecap:round;stroke-linejoin:round;stroke-opacity:1;paint-order:stroke fill markers"
       id="path24-42"
       cx="-44.215736"
       cy="-3.755255"
       r="0.68189663"
       transform="matrix(-0.96592583,-0.25881905,-0.25881905,0.96592583,0,0)" /></g></svg>
